HIERARCHY
ROOT Hips
{
	OFFSET 0.000000 100.481300 0.000000
	CHANNELS 6 Xposition Yposition Zposition Xrotation Yrotation Zrotation
	JOINT Spine
	{
		OFFSET -0.279200 12.230698 -2.892100
		CHANNELS 3 Xrotation Yrotation Zrotation
		JOINT Spine1
		{
			OFFSET -0.325700 14.269203 -3.374200
			CHANNELS 3 Xrotation Yrotation Zrotation
			JOINT Spine2
			{
				OFFSET -0.372300 16.307602 -0.352600
				CHANNELS 3 Xrotation Yrotation Zrotation
				JOINT Neck
				{
					OFFSET -0.418800 17.814194 8.416900
					CHANNELS 3 Xrotation Yrotation Zrotation
					JOINT Head
					{
						OFFSET 0.000000 7.031097 3.806800
						CHANNELS 3 Xrotation Yrotation Zrotation
						JOINT HeadTop_End
						{
							OFFSET 0.000000 24.646606 12.978600
							CHANNELS 3 Xrotation Yrotation Zrotation
							End Site
							{
								OFFSET 0.000000 27.854965 0.000000
							}
						}
					}
				}
				JOINT LeftShoulder
				{
					OFFSET 16.952999 14.495407 -7.737500
					CHANNELS 3 Xrotation Yrotation Zrotation
					JOINT LeftArm
					{
						OFFSET 9.308998 -2.777710 0.208600
						CHANNELS 3 Xrotation Yrotation Zrotation
						JOINT LeftForeArm
						{
							OFFSET 29.972298 0.000000 0.000000
							CHANNELS 3 Xrotation Yrotation Zrotation
							JOINT LeftHand
							{
								OFFSET 26.026505 0.000000 0.000000
								CHANNELS 3 Xrotation Yrotation Zrotation
								JOINT LeftHandThumb1
								{
									OFFSET 12.240501 -7.147949 9.207150
									CHANNELS 3 Xrotation Yrotation Zrotation
									JOINT LeftHandThumb2
									{
										OFFSET 4.138618 -2.389435 2.389433
										CHANNELS 3 Xrotation Yrotation Zrotation
										JOINT LeftHandThumb3
										{
											OFFSET 2.726913 -1.574387 1.574386
											CHANNELS 3 Xrotation Yrotation Zrotation
											JOINT LeftHandThumb4
											{
												OFFSET 3.941010 -2.275345 2.275342
												CHANNELS 3 Xrotation Yrotation Zrotation
												End Site
												{
													OFFSET -0.005798 5.087799 0.009903
												}
											}
										}
									}
								}
								JOINT LeftHandIndex1
								{
									OFFSET 24.424698 -1.985611 5.953459
									CHANNELS 3 Xrotation Yrotation Zrotation
									JOINT LeftHandIndex2
									{
										OFFSET 6.426697 0.000000 0.000000
										CHANNELS 3 Xrotation Yrotation Zrotation
										JOINT LeftHandIndex3
										{
											OFFSET 5.337898 0.000000 0.000000
											CHANNELS 3 Xrotation Yrotation Zrotation
											JOINT LeftHandIndex4
											{
												OFFSET 4.409401 0.000000 0.000000
												CHANNELS 3 Xrotation Yrotation Zrotation
												End Site
												{
													OFFSET 0.000000 4.409363 0.014373
												}
											}
										}
									}
								}
								JOINT LeftHandMiddle1
								{
									OFFSET 23.810104 0.000000 0.000000
									CHANNELS 3 Xrotation Yrotation Zrotation
									JOINT LeftHandMiddle2
									{
										OFFSET 7.176498 0.000000 0.000000
										CHANNELS 3 Xrotation Yrotation Zrotation
										JOINT LeftHandMiddle3
										{
											OFFSET 6.774902 0.000000 0.000000
											CHANNELS 3 Xrotation Yrotation Zrotation
											JOINT LeftHandMiddle4
											{
												OFFSET 5.403328 0.000000 0.000000
												CHANNELS 3 Xrotation Yrotation Zrotation
												End Site
												{
													OFFSET -0.027702 5.403244 0.017414
												}
											}
										}
									}
								}
								JOINT LeftHandRing1
								{
									OFFSET 22.908401 -0.839279 -6.020567
									CHANNELS 3 Xrotation Yrotation Zrotation
									JOINT LeftHandRing2
									{
										OFFSET 6.337502 0.000000 0.000000
										CHANNELS 3 Xrotation Yrotation Zrotation
										JOINT LeftHandRing3
										{
											OFFSET 5.779297 0.000000 0.000000
											CHANNELS 3 Xrotation Yrotation Zrotation
											JOINT LeftHandRing4
											{
												OFFSET 4.965698 0.000000 0.000000
												CHANNELS 3 Xrotation Yrotation Zrotation
												End Site
												{
													OFFSET 0.000000 4.965668 0.016186
												}
											}
										}
									}
								}
								JOINT LeftHandPinky1
								{
									OFFSET 20.037003 -1.530319 -10.950146
									CHANNELS 3 Xrotation Yrotation Zrotation
									JOINT LeftHandPinky2
									{
										OFFSET 5.254700 0.000000 0.000000
										CHANNELS 3 Xrotation Yrotation Zrotation
										JOINT LeftHandPinky3
										{
											OFFSET 4.810204 0.000000 0.000000
											CHANNELS 3 Xrotation Yrotation Zrotation
											JOINT LeftHandPinky4
											{
												OFFSET 3.647202 0.000000 0.000000
												CHANNELS 3 Xrotation Yrotation Zrotation
												End Site
												{
													OFFSET 0.000000 3.647186 0.011889
												}
											}
										}
									}
								}
							}
						}
					}
				}
				JOINT RightShoulder
				{
					OFFSET -15.141001 14.495407 -7.737500
					CHANNELS 3 Xrotation Yrotation Zrotation
					JOINT RightArm
					{
						OFFSET -9.308998 -2.777710 0.208500
						CHANNELS 3 Xrotation Yrotation Zrotation
						JOINT RightForeArm
						{
							OFFSET -29.972300 0.000000 0.000000
							CHANNELS 3 Xrotation Yrotation Zrotation
							JOINT RightHand
							{
								OFFSET -26.026505 0.000000 0.000000
								CHANNELS 3 Xrotation Yrotation Zrotation
								JOINT RightHandThumb1
								{
									OFFSET -12.240601 -7.148026 9.207092
									CHANNELS 3 Xrotation Yrotation Zrotation
									JOINT RightHandThumb2
									{
										OFFSET -4.138618 -2.389435 2.389433
										CHANNELS 3 Xrotation Yrotation Zrotation
										JOINT RightHandThumb3
										{
											OFFSET -2.726974 -1.574417 1.574421
											CHANNELS 3 Xrotation Yrotation Zrotation
											JOINT RightHandThumb4
											{
												OFFSET -3.941010 -2.275345 2.275343
												CHANNELS 3 Xrotation Yrotation Zrotation
												End Site
												{
													OFFSET 0.005814 5.087799 0.009927
												}
											}
										}
									}
								}
								JOINT RightHandIndex1
								{
									OFFSET -24.424698 -1.985657 5.953444
									CHANNELS 3 Xrotation Yrotation Zrotation
									JOINT RightHandIndex2
									{
										OFFSET -6.426697 0.000000 0.000000
										CHANNELS 3 Xrotation Yrotation Zrotation
										JOINT RightHandIndex3
										{
											OFFSET -5.337898 0.000000 0.000000
											CHANNELS 3 Xrotation Yrotation Zrotation
											JOINT RightHandIndex4
											{
												OFFSET -4.409401 0.000000 0.000000
												CHANNELS 3 Xrotation Yrotation Zrotation
												End Site
												{
													OFFSET 0.000000 4.409363 0.014408
												}
											}
										}
									}
								}
								JOINT RightHandMiddle1
								{
									OFFSET -23.810097 0.000000 0.000000
									CHANNELS 3 Xrotation Yrotation Zrotation
									JOINT RightHandMiddle2
									{
										OFFSET -7.176498 0.000000 0.000000
										CHANNELS 3 Xrotation Yrotation Zrotation
										JOINT RightHandMiddle3
										{
											OFFSET -6.774902 0.000000 0.000000
											CHANNELS 3 Xrotation Yrotation Zrotation
											JOINT RightHandMiddle4
											{
												OFFSET -5.403328 0.000000 0.000000
												CHANNELS 3 Xrotation Yrotation Zrotation
												End Site
												{
													OFFSET 0.027702 5.403244 0.017457
												}
											}
										}
									}
								}
								JOINT RightHandRing1
								{
									OFFSET -22.908302 -0.839325 -6.020576
									CHANNELS 3 Xrotation Yrotation Zrotation
									JOINT RightHandRing2
									{
										OFFSET -6.337502 0.000000 0.000000
										CHANNELS 3 Xrotation Yrotation Zrotation
										JOINT RightHandRing3
										{
											OFFSET -5.779297 0.000000 0.000000
											CHANNELS 3 Xrotation Yrotation Zrotation
											JOINT RightHandRing4
											{
												OFFSET -4.965698 0.000000 0.000000
												CHANNELS 3 Xrotation Yrotation Zrotation
												End Site
												{
													OFFSET 0.000000 4.965668 0.016226
												}
											}
										}
									}
								}
								JOINT RightHandPinky1
								{
									OFFSET -20.037003 -1.530334 -10.950259
									CHANNELS 3 Xrotation Yrotation Zrotation
									JOINT RightHandPinky2
									{
										OFFSET -5.254700 0.000000 0.000000
										CHANNELS 3 Xrotation Yrotation Zrotation
										JOINT RightHandPinky3
										{
											OFFSET -4.810204 0.000000 0.000000
											CHANNELS 3 Xrotation Yrotation Zrotation
											JOINT RightHandPinky4
											{
												OFFSET -3.647202 0.000000 0.000000
												CHANNELS 3 Xrotation Yrotation Zrotation
												End Site
												{
													OFFSET 0.000000 3.647186 0.011917
												}
											}
										}
									}
								}
							}
						}
					}
				}
			}
		}
	}
	JOINT LeftUpLeg
	{
		OFFSET 15.427100 -6.655098 0.678600
		CHANNELS 3 Xrotation Yrotation Zrotation
		JOINT LeftLeg
		{
			OFFSET 4.081073 -39.591068 13.024000
			CHANNELS 3 Xrotation Yrotation Zrotation
			JOINT LeftFoot
			{
				OFFSET -4.081074 -37.707932 -15.979700
				CHANNELS 3 Xrotation Yrotation Zrotation
				JOINT LeftToeBase
				{
					OFFSET 5.346399 -15.068900 20.645000
					CHANNELS 3 Xrotation Yrotation Zrotation
					JOINT LeftToe_End
					{
						OFFSET 2.754700 0.931300 11.300900
						CHANNELS 3 Xrotation Yrotation Zrotation
						End Site
						{
							OFFSET 0.000000 11.669021 0.000000
						}
					}
				}
			}
		}
	}
	JOINT RightUpLeg
	{
		OFFSET -15.569500 -6.655098 0.678600
		CHANNELS 3 Xrotation Yrotation Zrotation
		JOINT RightLeg
		{
			OFFSET -4.081825 -39.591045 13.023800
			CHANNELS 3 Xrotation Yrotation Zrotation
			JOINT RightFoot
			{
				OFFSET 4.081824 -37.707954 -15.979600
				CHANNELS 3 Xrotation Yrotation Zrotation
				JOINT RightToeBase
				{
					OFFSET -5.346400 -15.068900 20.645000
					CHANNELS 3 Xrotation Yrotation Zrotation
					JOINT RightToe_End
					{
						OFFSET -2.754700 0.931300 11.300900
						CHANNELS 3 Xrotation Yrotation Zrotation
						End Site
						{
							OFFSET 0.000000 11.669021 0.000000
						}
					}
				}
			}
		}
	}
}
MOTION
Frames: 4
Frame Time: 0.033333
-3.134754 28.006332 4.848957 -42.631329 -36.615568 -24.834448 58.951971 7.492557 0.012272 10.734610 0.744711 -4.521335 17.520067 -0.085160 -4.562564 -10.626368 7.119770 2.460949 -15.542324 20.386166 10.545793 0.000001 -0.000000 0.000001 -37.559053 -4.830593 1.310668 -73.284863 -19.463271 -69.164749 0.000023 -49.486100 0.000014 -122.217752 3.139034 22.357460 4.709225 9.560387 3.111989 19.473185 -1.474924 7.636921 -4.536190 -9.613097 1.492978 0.000001 0.000004 -0.000001 -0.212819 3.933726 -36.747121 2.942151 5.078906 -60.144597 0.513674 2.400826 -24.150494 -0.000002 -0.000001 0.000003 0.405922 5.507068 -52.453165 3.387134 5.308620 -65.057456 0.282020 1.797459 -17.832383 0.000000 -0.000002 0.000001 -0.074373 5.736794 -61.061413 4.055031 5.569508 -72.094914 0.582666 2.548982 -25.747991 -0.000001 -0.000001 -0.000002 -6.565574 4.545142 -72.425229 3.299632 5.267212 -64.107821 0.175349 1.424019 -14.038883 -0.000001 -0.000002 -0.000003 -42.139822 -9.769733 -7.575439 -51.815926 45.274828 94.910656 0.000146 103.659390 -0.000153 -37.424488 -24.460849 -24.587834 8.377134 -4.904143 11.021989 21.620218 -18.183893 -18.379219 -0.702914 -49.821206 -32.535148 0.000000 0.000002 0.000001 -0.920036 1.683586 12.434982 0.748122 -2.533468 32.898282 0.615630 -2.316068 29.767826 -0.000000 -0.000000 -0.000000 3.413059 -7.186261 51.650242 6.296815 -4.359598 110.634646 0.248720 -1.503076 18.790288 -0.000000 -0.000000 0.000000 -3.349044 -2.600420 57.010568 5.440855 -4.590908 99.698168 1.689413 -3.590691 50.382224 -0.000000 0.000000 0.000000 -3.996444 -3.303932 64.593857 4.058843 -4.618672 82.610523 2.315562 -4.026793 59.787214 -0.000000 -0.000000 0.000002 -84.112468 -19.955632 20.870198 111.232294 -10.036463 0.983595 9.880152 -3.443257 -14.910539 1.364373 -0.002217 0.302058 0.000000 -0.000001 0.000000 17.744985 6.845689 -179.637786 10.466393 37.913700 135.574283 47.347568 16.161283 18.987304 -37.368211 -0.000011 -0.000001 -0.000000 -0.000001 0.000000 
-2.982349 27.996986 5.349407 -42.611378 -36.253312 -24.782488 59.208799 7.812729 0.502990 10.519541 0.732814 -4.440096 17.062205 -0.090465 -4.479568 -9.630611 6.933218 2.552453 -15.900923 19.625386 9.488857 0.000000 -0.000001 0.000003 -36.151006 -5.144063 1.065846 -74.040268 -21.564961 -68.504113 0.000011 -49.317736 0.000010 -123.838392 1.768534 21.781994 4.709226 9.560380 3.111989 19.473185 -1.474925 7.636920 -4.536194 -9.613099 1.492977 0.000000 0.000005 -0.000001 -0.212819 3.933724 -36.747121 2.942153 5.078901 -60.144604 0.513678 2.400826 -24.150497 0.000001 -0.000003 0.000001 0.405922 5.507058 -52.453162 3.387134 5.308623 -65.057449 0.282017 1.797454 -17.832379 0.000003 0.000000 0.000002 -0.074372 5.736789 -61.061413 4.055033 5.569508 -72.094921 0.582666 2.548982 -25.747995 -0.000001 0.000001 -0.000002 -6.565574 4.545139 -72.425236 3.299629 5.267214 -64.107821 0.175344 1.424013 -14.038888 -0.000000 0.000001 -0.000002 -40.449422 -9.335158 -6.537450 -51.269609 44.852988 92.084651 0.000015 104.454199 -0.000023 -37.938784 -25.203507 -24.133430 8.377133 -4.904143 11.021990 21.620219 -18.183891 -18.379219 -0.702917 -49.821200 -32.535152 -0.000001 -0.000001 0.000004 -0.920037 1.683585 12.434984 0.748122 -2.533468 32.898286 0.615630 -2.316069 29.767832 0.000000 -0.000000 -0.000001 3.413059 -7.186262 51.650242 6.296815 -4.359598 110.634653 0.248720 -1.503075 18.790289 -0.000001 -0.000000 -0.000000 -3.349045 -2.600421 57.010568 5.440855 -4.590910 99.698174 1.689413 -3.590690 50.382224 0.000000 0.000001 -0.000001 -3.996444 -3.303933 64.593857 4.058844 -4.618673 82.610523 2.315562 -4.026794 59.787214 -0.000000 -0.000000 0.000000 -84.818628 -18.650989 19.787707 112.047505 -9.102238 1.677425 9.493497 -3.286477 -14.363432 1.313557 -0.000855 0.186176 0.000000 -0.000000 -0.000000 14.422262 4.690489 -183.007706 9.728598 35.287254 135.954506 51.691691 18.298022 18.062391 -36.482151 0.000001 -0.000009 -0.000000 0.000000 -0.000000 
-2.813217 27.963554 5.910461 -42.572245 -35.941934 -24.741129 59.492805 8.199861 0.958463 10.445789 0.717244 -4.314695 16.731990 -0.090166 -4.352847 -8.829497 6.664012 2.821652 -16.395949 18.826402 8.286607 -0.000001 0.000000 -0.000001 -34.658463 -5.265404 1.265661 -75.214357 -23.676796 -68.074774 0.000006 -48.563844 -0.000000 -125.825185 0.558911 20.620225 4.709226 9.560386 3.111989 19.473185 -1.474921 7.636919 -4.536192 -9.613099 1.492975 0.000001 0.000002 0.000000 -0.212819 3.933727 -36.747125 2.942153 5.078906 -60.144597 0.513676 2.400826 -24.150499 0.000001 0.000001 -0.000001 0.405922 5.507065 -52.453162 3.387135 5.308624 -65.057463 0.282018 1.797456 -17.832383 0.000000 -0.000001 0.000001 -0.074372 5.736795 -61.061413 4.055036 5.569511 -72.094921 0.582670 2.548976 -25.747990 0.000001 -0.000001 0.000001 -6.565574 4.545144 -72.425236 3.299630 5.267212 -64.107821 0.175346 1.424015 -14.038888 -0.000001 -0.000002 -0.000003 -38.644001 -8.691120 -5.316302 -51.022442 44.433017 89.024440 0.000012 105.069490 -0.000030 -38.357748 -25.871908 -23.706729 8.377133 -4.904143 11.021989 21.620219 -18.183893 -18.379219 -0.702916 -49.821203 -32.535148 -0.000000 0.000002 0.000002 -0.920037 1.683585 12.434984 0.748122 -2.533468 32.898282 0.615630 -2.316068 29.767826 0.000000 0.000000 -0.000001 3.413059 -7.186261 51.650239 6.296816 -4.359598 110.634653 0.248721 -1.503075 18.790291 -0.000001 -0.000000 -0.000000 -3.349046 -2.600420 57.010568 5.440856 -4.590909 99.698168 1.689413 -3.590690 50.382221 -0.000000 0.000000 -0.000001 -3.996446 -3.303933 64.593857 4.058844 -4.618673 82.610523 2.315562 -4.026793 59.787214 -0.000000 -0.000002 0.000002 -85.561834 -17.288629 18.648045 112.952874 -8.025039 2.423078 9.024595 -3.126383 -13.858630 1.256633 -0.000063 0.055732 0.000000 0.000001 -0.000000 12.746822 3.811561 -183.452638 9.429421 34.393025 135.658130 52.918185 18.818921 17.387881 -35.503388 -0.000003 -0.000018 -0.000000 -0.000001 -0.000000 
-2.646164 27.930855 6.517921 -42.532954 -35.687042 -24.718475 60.091813 8.647849 1.356202 10.169507 0.730088 -4.208313 16.185356 -0.063399 -4.250209 -8.177912 6.317134 2.961170 -16.739303 17.746508 7.614224 0.000001 0.000000 0.000000 -33.130092 -5.511601 1.418510 -76.444891 -26.043361 -67.601469 0.000016 -47.132786 0.000010 -128.007990 -0.322464 19.093937 4.709225 9.560387 3.111990 19.473187 -1.474927 7.636922 -4.536196 -9.613099 1.492977 -0.000002 -0.000004 0.000000 -0.212819 3.933722 -36.747125 2.942152 5.078903 -60.144604 0.513679 2.400825 -24.150499 0.000004 0.000001 0.000000 0.405922 5.507063 -52.453162 3.387134 5.308621 -65.057456 0.282018 1.797461 -17.832379 -0.000000 0.000000 0.000000 -0.074372 5.736794 -61.061413 4.055029 5.569511 -72.094914 0.582668 2.548981 -25.747993 0.000001 0.000002 0.000002 -6.565574 4.545142 -72.425229 3.299629 5.267211 -64.107821 0.175345 1.424015 -14.038884 -0.000001 -0.000003 -0.000002 -36.841760 -7.901719 -4.189057 -50.728648 43.968110 85.981666 0.000247 105.430821 -0.000260 -38.733453 -26.349246 -23.358313 8.377133 -4.904143 11.021992 21.620216 -18.183891 -18.379219 -0.702916 -49.821200 -32.535148 -0.000004 0.000001 0.000002 -0.920037 1.683585 12.434983 0.748122 -2.533468 32.898282 0.615630 -2.316068 29.767829 0.000000 0.000000 -0.000002 3.413058 -7.186262 51.650242 6.296815 -4.359598 110.634653 0.248720 -1.503076 18.790284 -0.000001 0.000000 0.000000 -3.349046 -2.600421 57.010568 5.440855 -4.590909 99.698168 1.689412 -3.590690 50.382221 0.000000 -0.000000 -0.000000 -3.996443 -3.303933 64.593857 4.058844 -4.618673 82.610530 2.315562 -4.026793 59.787214 -0.000000 -0.000001 0.000001 -86.173683 -15.945430 17.547034 113.896314 -6.891940 3.139588 8.396216 -2.955966 -13.414744 1.142864 0.000001 0.000001 0.000000 0.000000 0.000000 11.263546 2.837400 -183.842478 8.995269 33.293245 135.513767 53.664250 19.278943 16.613084 -34.535496 -0.000034 -0.000017 0.000000 -0.000000 0.000000 
